<svg width="6" height="16" viewBox="0 0 6 16" fill="none" xmlns="http://www.w3.org/2000/svg">
<path d="M5.14062 15.8594C4.63542 15.8438 4.19792 15.7266 3.82812 15.5078C3.45833 15.2891 3.15104 15 2.90625 14.6406C2.67188 14.2969 2.49479 13.9115 2.375 13.4844C2.25521 13.0625 2.19531 12.6432 2.19531 12.2266V10.9062C2.19531 10.1562 2.01562 9.61198 1.65625 9.27344C1.30208 8.9349 0.757812 8.76302 0.0234375 8.75781V7.625C0.757812 7.625 1.30208 7.45833 1.65625 7.125C2.01562 6.78646 2.19531 6.23958 2.19531 5.48438V4.15625C2.19531 3.73438 2.25 3.30469 2.35938 2.86719C2.47396 2.42448 2.65365 2.02865 2.89844 1.67969C3.1276 1.34635 3.42708 1.07552 3.79688 0.867188C4.16667 0.653646 4.61458 0.539062 5.14062 0.523438L5.30469 1.42188C4.92969 1.43229 4.63021 1.52083 4.40625 1.6875C4.1875 1.85417 4.02344 2.0651 3.91406 2.32031C3.79948 2.58073 3.72656 2.8724 3.69531 3.19531C3.66406 3.51823 3.64844 3.83854 3.64844 4.15625V5.48438C3.64844 6.10938 3.5026 6.65885 3.21094 7.13281C2.92448 7.60156 2.47917 7.95833 1.875 8.20312C2.47917 8.44271 2.92448 8.79948 3.21094 9.27344C3.4974 9.74219 3.64323 10.2865 3.64844 10.9062V12.2266C3.64844 12.5495 3.67448 12.8698 3.72656 13.1875C3.77865 13.5104 3.86979 13.7995 4 14.0547C4.125 14.3151 4.29167 14.5286 4.5 14.6953C4.71354 14.862 4.98177 14.9505 5.30469 14.9609L5.14062 15.8594Z" fill="#F8F5EC"/>
</svg>
