<svg width="6" height="16" viewBox="0 0 6 16" fill="none" xmlns="http://www.w3.org/2000/svg">
<path d="M0.0234375 14.9609C0.341146 14.9505 0.606771 14.862 0.820312 14.6953C1.03385 14.5286 1.20573 14.3151 1.33594 14.0547C1.46094 13.7995 1.54948 13.5104 1.60156 13.1875C1.65885 12.8698 1.6875 12.5495 1.6875 12.2266V10.9062C1.6875 10.4948 1.7474 10.1146 1.86719 9.76562C1.99219 9.41667 2.18229 9.11458 2.4375 8.85938C2.57292 8.72396 2.72396 8.60156 2.89062 8.49219C3.0625 8.38281 3.25 8.28646 3.45312 8.20312C3.24479 8.11979 3.05208 8.02083 2.875 7.90625C2.70312 7.79167 2.55208 7.66406 2.42188 7.52344C2.17188 7.26302 1.98698 6.96094 1.86719 6.61719C1.7474 6.26823 1.6875 5.89062 1.6875 5.48438V4.15625C1.6875 3.83854 1.66927 3.51823 1.63281 3.19531C1.60156 2.8724 1.53125 2.58073 1.42188 2.32031C1.30729 2.0651 1.14062 1.85417 0.921875 1.6875C0.703125 1.52083 0.40625 1.43229 0.03125 1.42188L0.1875 0.523438C0.692708 0.539062 1.125 0.645833 1.48438 0.84375C1.84896 1.04167 2.14844 1.29948 2.38281 1.61719C2.64844 1.97656 2.83854 2.38021 2.95312 2.82812C3.07292 3.27604 3.13281 3.71875 3.13281 4.15625V5.48438C3.13281 5.79688 3.16146 6.07292 3.21875 6.3125C3.28125 6.54688 3.3724 6.75 3.49219 6.92188C3.66406 7.16667 3.90104 7.34635 4.20312 7.46094C4.51042 7.57031 4.8776 7.625 5.30469 7.625V8.75781C4.92969 8.76302 4.60156 8.8099 4.32031 8.89844C4.04427 8.98177 3.81771 9.11458 3.64062 9.29688C3.46875 9.47396 3.34115 9.69531 3.25781 9.96094C3.17448 10.2266 3.13281 10.5417 3.13281 10.9062V12.2266C3.13281 12.6432 3.07552 13.0625 2.96094 13.4844C2.84635 13.9115 2.66927 14.2995 2.42969 14.6484C2.1849 14.9974 1.8776 15.2839 1.50781 15.5078C1.13802 15.7318 0.697917 15.849 0.1875 15.8594L0.0234375 14.9609Z" fill="#F8F5EC"/>
</svg>
