<svg width="22" height="20" viewBox="0 0 22 20" fill="none" xmlns="http://www.w3.org/2000/svg">
<path d="M19.824 0H2.36239C1.1619 0 0.190601 1.125 0.190601 2.5L0.179688 17.5C0.179688 18.875 1.1619 20 2.36239 20H19.824C21.0245 20 22.0067 18.875 22.0067 17.5V2.5C22.0067 1.125 21.0245 0 19.824 0ZM19.3874 5.3125L11.6716 10.8375C11.3224 11.0875 10.864 11.0875 10.5148 10.8375L2.79893 5.3125C2.52609 5.1125 2.36239 4.775 2.36239 4.4125C2.36239 3.575 3.15907 3.075 3.78114 3.5125L11.0932 8.75L18.4052 3.5125C19.0273 3.075 19.824 3.575 19.824 4.4125C19.824 4.775 19.6603 5.1125 19.3874 5.3125Z" fill="#89BCD9"/>
</svg>
